<?xml version="1.0" standalone="no"?><!DOCTYPE svg PUBLIC "-//W3C//DTD SVG 1.1//EN" "http://www.w3.org/Graphics/SVG/1.1/DTD/svg11.dtd"><svg t="1664347300736" class="icon" viewBox="0 0 1024 1024" version="1.1" xmlns="http://www.w3.org/2000/svg" p-id="1683" xmlns:xlink="http://www.w3.org/1999/xlink" width="200" height="200"><path d="M771.1744 930.304H270.7968c-33.9456 0-61.44-27.4944-61.44-61.44V154.4704c0-33.9456 27.4944-61.44 61.44-61.44h500.3776c33.9456 0 61.44 27.4944 61.44 61.44V868.864c0 33.9456-27.4944 61.44-61.44 61.44z" fill="#71BFFF" p-id="1684"></path><path d="M771.1744 93.0304H270.7968c-33.9456 0-61.44 27.4944-61.44 61.44V324.096c0 5.5808 13.7728 10.1376 30.72 10.1376 0 0 138.24-25.6 249.2416-25.6s312.6272 25.6 312.6272 25.6c16.9472 0 30.72-4.5056 30.72-10.1376V154.4704c-0.0512-33.9456-27.5456-61.44-61.4912-61.44z" fill="#81CBFC" p-id="1685"></path><path d="M209.3568 423.7824h623.2576v77.8752H209.3568z" fill="#52A9F7" p-id="1686"></path><path d="M769.2288 645.9904s-164.0448-20.48-285.6448-20.48-274.2272 20.48-274.2272 20.48V492.2368c0-20.6848 16.7424-37.4272 37.4272-37.4272h485.0176c20.6848 0 37.4272 16.7424 37.4272 37.4272v153.7536z" fill="#81CBFC" p-id="1687"></path><path d="M296.3456 348.6208c-11.008 0-19.9168-8.9088-19.9168-19.9168V207.7184c0-11.008 8.9088-19.9168 19.9168-19.9168 11.008 0 19.9168 8.9088 19.9168 19.9168v120.9344c0 11.008-8.9088 19.968-19.9168 19.968z" fill="#52A9F7" p-id="1688"></path><path d="M284.5696 348.6208c-11.008 0-19.9168-8.9088-19.9168-19.9168V207.7184c0-11.008 8.9088-19.9168 19.9168-19.9168 11.008 0 19.9168 8.9088 19.9168 19.9168v120.9344a19.9168 19.9168 0 0 1-19.9168 19.968z" fill="#FFB15C" p-id="1689"></path><path d="M279.04 348.6208c-7.936 0-14.3872-6.4512-14.3872-14.3872V202.1888c0-7.936 6.4512-14.3872 14.3872-14.3872s14.3872 6.4512 14.3872 14.3872v132.0448a14.43328 14.43328 0 0 1-14.3872 14.3872z" fill="#FFC78F" p-id="1690"></path><path d="M296.3456 581.2736c-11.008 0-19.9168-8.9088-19.9168-19.9168v-24.2688c0-11.008 8.9088-19.9168 19.9168-19.9168 11.008 0 19.9168 8.9088 19.9168 19.9168v24.2688c0 11.008-8.9088 19.9168-19.9168 19.9168z" fill="#52A9F7" p-id="1691"></path><path d="M284.5696 581.2736c-11.008 0-19.9168-8.9088-19.9168-19.9168v-24.2688c0-11.008 8.9088-19.9168 19.9168-19.9168 11.008 0 19.9168 8.9088 19.9168 19.9168v24.2688c0.0512 11.008-8.9088 19.9168-19.9168 19.9168z" fill="#FFB15C" p-id="1692"></path><path d="M279.04 581.2736c-7.936 0-14.3872-6.4512-14.3872-14.3872v-35.3792c0-7.936 6.4512-14.3872 14.3872-14.3872s14.3872 6.4512 14.3872 14.3872v35.3792a14.43328 14.43328 0 0 1-14.3872 14.3872z" fill="#FFC78F" p-id="1693"></path><path d="M296.3456 786.5344c-11.008 0-19.9168-8.9088-19.9168-19.9168V624.64c0-11.008 8.9088-19.9168 19.9168-19.9168 11.008 0 19.9168 8.9088 19.9168 19.9168v141.9264c0 11.008-8.9088 19.968-19.9168 19.968z" fill="#52A9F7" p-id="1694"></path><path d="M284.5696 786.5344c-11.008 0-19.9168-8.9088-19.9168-19.9168V624.64c0-11.008 8.9088-19.9168 19.9168-19.9168 11.008 0 19.9168 8.9088 19.9168 19.9168v141.9264a19.9168 19.9168 0 0 1-19.9168 19.968z" fill="#FFB15C" p-id="1695"></path><path d="M279.04 786.5344c-7.936 0-14.3872-6.4512-14.3872-14.3872v-153.0368c0-7.936 6.4512-14.3872 14.3872-14.3872s14.3872 6.4512 14.3872 14.3872v153.0368a14.43328 14.43328 0 0 1-14.3872 14.3872z" fill="#FFC78F" p-id="1696"></path><path d="M832.6144 868.864V154.4704c0-20.6848-10.24-38.912-25.9072-50.0736-4.6592-3.2768-9.728-5.9392-15.2064-7.8848a60.7744 60.7744 0 0 0-20.3264-3.5328h-27.6992c13.3632 8.3456 25.7536 24.3712 25.7536 54.8864v705.8944s0.6656 52.9408-36.608 52.9408h-495.104s-11.8784-0.3584-22.016-11.3152c9.9328 20.5824 30.9248 34.816 55.296 34.816h500.3776c33.9456 0.1024 61.44-27.392 61.44-61.3376z" fill="#52A9F7" p-id="1697"></path><path d="M229.376 263.6288V166.5536s0.3072-52.9408 64-52.9408h334.336s-310.784 20.5824-331.3664 21.5552c-20.5824 0.9728-43.1616 9.7792-46.08 34.304S229.376 263.6288 229.376 263.6288zM229.376 624.1792v-97.0752s0.3072-52.9408 64-52.9408h334.336s-310.784 20.5824-331.3664 21.5552c-20.5824 0.9728-43.1616 9.7792-46.08 34.304-2.9696 24.576-20.8896 94.1568-20.8896 94.1568z" fill="#C8E9FC" p-id="1698"></path></svg>