<?xml version="1.0" standalone="no"?><!DOCTYPE svg PUBLIC "-//W3C//DTD SVG 1.1//EN" "http://www.w3.org/Graphics/SVG/1.1/DTD/svg11.dtd"><svg t="1664347311318" class="icon" viewBox="0 0 1024 1024" version="1.1" xmlns="http://www.w3.org/2000/svg" p-id="2034" xmlns:xlink="http://www.w3.org/1999/xlink" width="200" height="200"><path d="M517.5808 207.1552c14.8992 0 29.6448 0.8704 44.1344 2.4064V131.0208c0-20.1216-16.3328-36.4544-36.4544-36.4544H509.952c-20.1216 0-36.4544 16.3328-36.4544 36.4544v78.5408c14.4896-1.536 29.184-2.4064 44.0832-2.4064z" fill="#5672FC" p-id="2035"></path><path d="M882.2272 618.1376c26.4192 0 46.5408-23.1936 43.3664-49.408-24.4224-203.6736-197.7856-361.5744-408.064-361.5744s-383.6416 157.9008-408.064 361.5744c-3.1232 26.2144 16.9984 49.408 43.3664 49.408h729.3952z" fill="#6477FF" p-id="2036"></path><path d="M714.9568 618.1376c0 109.0048-88.3712 182.016-197.376 182.016s-197.376-73.0112-197.376-182.016h394.752z" fill="#FFD629" p-id="2037"></path><path d="M518.5536 952.6272h-1.9456c-16.6912 0-30.1568-13.5168-30.1568-30.1568v-32.8192c0-16.6912 13.5168-30.1568 30.1568-30.1568h1.9456c16.6912 0 30.1568 13.5168 30.1568 30.1568v32.8192c0.0512 16.6912-13.4656 30.1568-30.1568 30.1568zM333.4656 895.232l-1.5872-1.1776a30.16704 30.16704 0 0 1-6.144-42.24l19.6096-26.3168a30.16704 30.16704 0 0 1 42.24-6.144l1.5872 1.1776a30.16704 30.16704 0 0 1 6.144 42.24l-19.6096 26.3168a30.16704 30.16704 0 0 1-42.24 6.144zM686.8992 905.1648l1.5872-1.1776a30.16704 30.16704 0 0 0 6.144-42.24l-19.6096-26.3168a30.16704 30.16704 0 0 0-42.24-6.144l-1.5872 1.1776a30.16704 30.16704 0 0 0-6.144 42.24l19.6096 26.3168a30.16704 30.16704 0 0 0 42.24 6.144z" fill="#FF973D" p-id="2038"></path><path d="M517.5808 207.1552c-210.2784 0-383.6416 157.9008-408.064 361.5744-3.0208 25.344 15.6672 47.7696 40.7552 49.2544 217.088-387.1232 690.688-252.1088 692.0704-251.6992-75.1616-96.8192-192.6656-159.1296-324.7616-159.1296z" fill="#6C85FF" p-id="2039"></path><path d="M757.1456 284.2624c1.9968 2.304 96.9728 113.152 103.424 237.3632 2.6112 24.832 2.0992 71.8848-103.5264 71.8848H150.7328s-41.984-0.6656-36.3008-55.0912c-1.9456 9.984-3.6864 20.0704-4.9152 30.3104-3.1232 26.2144 16.9984 49.408 43.3664 49.408h729.344c26.4192 0 46.5408-23.1936 43.3664-49.408-13.9776-117.0944-77.312-218.9312-168.448-284.4672z" fill="#5672FC" p-id="2040"></path><path d="M480 208.9472c12.3904-1.1264 24.8832-1.792 37.5808-1.792 6.144 0 12.2368 0.2048 18.2784 0.4608V96.1536a36.4544 36.4544 0 0 0-10.6496-1.5872h-15.3088a36.4544 36.4544 0 0 0-29.952 15.6672v98.7136z" fill="#6C85FF" p-id="2041"></path><path d="M493.3632 207.9744c6.4-0.4096 12.8512-0.6656 19.3024-0.7168V94.5664h-2.7648c-5.9904 0-11.5712 1.4848-16.5376 3.9936v109.4144z" fill="#8398FC" p-id="2042"></path><path d="M320.8192 632.6784h359.3728s-12.7488 154.112-143.9232 166.7072c100.2496-7.8336 178.7392-78.5408 178.7392-181.248h-394.752c-0.0512 4.9152 0.2048 9.7792 0.5632 14.5408z" fill="#FFB031" p-id="2043"></path><path d="M518.5536 859.4944h-1.9456c-0.256 0-0.4608 0.0512-0.7168 0.0512 3.9424 0.256 22.4256 2.6112 22.4256 24.9344v45.312s3.2768 17.6128-14.3872 22.3744c14.1312-2.5088 24.832-14.848 24.832-29.696v-32.8192c0-16.64-13.5168-30.1568-30.208-30.1568zM375.7056 889.088l19.6096-26.3168a30.16704 30.16704 0 0 0-1.2288-37.632c0.1536 0.3584 6.0928 16.5376-7.7312 34.304-13.9776 18.0224-22.528 28.0576-22.528 28.0576s-10.1376 16.2816-31.8976 6.5536l1.5872 1.1776c13.312 9.984 32.2048 7.2192 42.1888-6.144zM693.0432 899.84a30.21312 30.21312 0 0 0 1.5872-38.0416l-19.6096-26.3168a30.16704 30.16704 0 0 0-42.24-6.144l-1.5872 1.1776s20.1216-7.68 30.8736 5.3248c10.8032 13.0048 28.2112 36.0448 28.2112 36.0448s11.6224 15.0016 2.7648 27.9552z" fill="#F68B31" p-id="2044"></path><path d="M355.9424 632.6784s12.4416 82.3808 101.9392 124.8256c-26.7776-23.1936-66.6624-75.1616-67.9936-124.8256h-33.9456z" fill="#FCE37C" p-id="2045"></path><path d="M159.8464 506.3168s70.144-249.9584 325.0688-270.5408c30.4128-3.4304 40.704 36.3008 8.4992 44.5952-57.088 14.7968-191.1296 23.0912-333.568 225.9456z" fill="#8398FC" p-id="2046"></path><path d="M333.824 873.0112a8.0896 8.0896 0 0 1-1.6384-11.3152l25.344-33.9968a8.0896 8.0896 0 0 1 12.9536 9.6768l-25.344 33.9968c-2.6624 3.584-7.7312 4.352-11.3152 1.6384zM506.4704 935.3728c-4.4544 0-8.0896-3.6352-8.0896-8.0896v-42.4448c0-4.4544 3.6352-8.0896 8.0896-8.0896 4.4544 0 8.0896 3.6352 8.0896 8.0896v42.4448c0 4.4544-3.6352 8.0896-8.0896 8.0896zM669.4912 898.2016c-3.584 2.6624-8.6528 1.9456-11.3152-1.6384l-25.344-33.9968a8.0896 8.0896 0 0 1 12.9536-9.6768l25.344 33.9968c2.7136 3.584 1.9456 8.6528-1.6384 11.3152z" fill="#FCA565" p-id="2047"></path></svg>