<?xml version="1.0" standalone="no"?><!DOCTYPE svg PUBLIC "-//W3C//DTD SVG 1.1//EN" "http://www.w3.org/Graphics/SVG/1.1/DTD/svg11.dtd"><svg t="1664347305617" class="icon" viewBox="0 0 1024 1024" version="1.1" xmlns="http://www.w3.org/2000/svg" p-id="1856" xmlns:xlink="http://www.w3.org/1999/xlink" width="200" height="200"><path d="M48.7936 352.6144L121.856 413.4912l821.1968-237.4656s6.0416-24.7808-5.7856-66.816c-3.4304-12.1344-15.7184-19.3024-27.5456-15.872-128.512 37.0688-739.6352 207.872-857.088 240.64-8.2432 2.3552-10.3936 13.1584-3.84 18.6368z" fill="#F76439" p-id="1857"></path><path d="M943.0016 176.0256L121.856 413.4912l88.8832 171.0592c10.7008 20.6336 34.5088 30.1056 55.9616 22.272l609.0752-222.4128c18.6368-6.8096 34.7648-19.5584 45.5168-36.6592 20.0192-31.9488 43.3664-90.2656 21.7088-171.7248z" fill="#F68F32" p-id="1858"></path><path d="M268.1344 371.2L121.856 413.4912l88.8832 171.0592c10.7008 20.6336 34.5088 30.1056 55.9616 22.272l137.1136-50.0736-135.68-185.5488zM787.968 220.8768l43.776 179.5584 44.032-16.0768c18.6368-6.8096 34.7648-19.5584 45.5168-36.6592 20.0704-31.8976 43.3664-90.2656 21.76-171.6736l-155.0848 44.8512z" fill="#F7D53A" p-id="1859"></path><path d="M900.7616 907.6224H962.56v-390.4512h-61.7984a44.1344 44.1344 0 0 0-44.1344 44.1344v302.1824c0.0512 24.3712 19.7632 44.1344 44.1344 44.1344z" fill="#F68F32" p-id="1860"></path><path d="M556.5952 683.7248a73.0624 71.168 90 1 0 142.336 0 73.0624 71.168 90 1 0-142.336 0Z" fill="#F7D53A" p-id="1861"></path><path d="M685.2096 673.1264c0-20.6336-8.3456-39.2192-21.76-52.5312-10.496-6.2464-22.6816-9.9328-35.6864-9.9328-39.3216 0-71.168 32.7168-71.168 73.0624 0 20.6336 8.3456 39.2192 21.76 52.5312 10.496 6.2464 22.6816 9.9328 35.6864 9.9328 39.2704 0 71.168-32.7168 71.168-73.0624z" fill="#FFE164" p-id="1862"></path><path d="M686.7968 642.9696c7.6288 11.6224 12.0832 25.6512 12.0832 40.7552s-4.4544 29.1328-12.0832 40.7552h169.8304v-81.5104h-169.8304zM627.7632 610.7136c2.9696 0 5.888 0.256 8.7552 0.6144l-39.0144-125.2864-74.8544 27.3408 2.9184 9.4208 39.424 126.6176c11.9296-23.04 35.5328-38.7072 62.7712-38.7072z" fill="#F76439" p-id="1863"></path><path d="M920.6272 93.184c3.3792 6.144 27.6992 52.5824-0.3584 62.3616-30.0544 10.4448-823.2448 237.2096-823.2448 237.2096l24.832 20.6848 821.1968-237.4656s6.0416-24.7808-5.7856-66.816a22.82496 22.82496 0 0 0-16.64-15.9744z" fill="#E54F2C" p-id="1864"></path><path d="M75.9808 340.7872l819.4048-232.192c5.2224-1.4848 10.6496 1.6384 11.9808 6.912 1.28 5.0176-1.6384 10.1376-6.656 11.6224L98.7648 362.24a3.84 3.84 0 0 1-3.328-0.512l-20.5824-13.7728a3.98848 3.98848 0 0 1 1.1264-7.168z" fill="#FC8E75" p-id="1865"></path><path d="M172.4928 400.4352l-0.1024-1.5872-50.5856 14.6432 88.8832 171.0592c10.7008 20.6336 34.5088 30.1056 55.9616 22.272l18.3808-6.7072-112.5376-199.68z" fill="#FFE164" p-id="1866"></path><path d="M928.9216 347.5456c20.0704-31.8976 35.7376-90.112 14.08-171.52l-33.3824 9.6768s24.2176 124.6208-32.1536 160.4096c-40.4992 14.3872-53.76 21.2992-53.76 21.2992l8.0384 33.0752 44.032-16.0768c18.6368-6.8608 42.3936-19.7632 53.1456-36.864z" fill="#F4BB3B" p-id="1867"></path><path d="M823.6544 367.36l-441.856 159.2832 22.016 30.0544 427.9296-156.2624z" fill="#E0761E" p-id="1868"></path><path d="M381.7984 526.6432l-114.9952 41.0624 18.2784 32.3584 118.7328-43.3664z" fill="#F4BB3B" p-id="1869"></path><path d="M203.4688 570.5728l7.2704 13.9776c10.7008 20.6336 34.5088 30.1056 55.9616 22.272l18.3808-6.7072-18.2784-32.4096c-40.0384 14.2848-63.3344 2.8672-63.3344 2.8672z" fill="#F4CA53" p-id="1870"></path><path d="M148.0192 464.7424l52.5312-14.592 26.9824 47.872L173.056 512z" fill="#FFE885" p-id="1871"></path><path d="M200.5504 450.1504l104.448-28.5696 34.4064 47.0528-111.872 29.3888z" fill="#FCDB51" p-id="1872"></path><path d="M304.9984 421.5808l496.4864-145.2544 10.6496 43.7248-472.7296 148.5824z" fill="#FC9642" p-id="1873"></path><path d="M801.4848 276.3264l113.3056-34.1504s-1.6896 38.4-4.5568 49.408c-21.6576 5.9904-98.0992 28.4672-98.0992 28.4672l-10.6496-43.7248z" fill="#FCDB51" p-id="1874"></path><path d="M636.4672 611.2768l-39.0144-125.2864-74.8544 27.3408 2.9184 9.4208 0.7168 2.304 62.0032-17.8688 31.4368 103.9872c2.6624-0.3072 5.376-0.512 8.0896-0.512 2.9184 0.0512 5.8368 0.256 8.704 0.6144zM698.9312 683.7248c0 15.104-4.4544 29.1328-12.0832 40.7552h169.8304v-14.1824h-139.9808c1.9456-42.6496-17.7152-67.328-17.7152-67.328h-12.0832a74.7008 74.7008 0 0 1 12.032 40.7552z" fill="#E54F2C" p-id="1875"></path><path d="M928.1024 517.1712H962.56v390.4512h-34.4576z" fill="#E0761E" p-id="1876"></path></svg>