<?xml version="1.0" standalone="no"?><!DOCTYPE svg PUBLIC "-//W3C//DTD SVG 1.1//EN" "http://www.w3.org/Graphics/SVG/1.1/DTD/svg11.dtd"><svg t="1664347293087" class="icon" viewBox="0 0 1024 1024" version="1.1" xmlns="http://www.w3.org/2000/svg" p-id="1495" xmlns:xlink="http://www.w3.org/1999/xlink" width="200" height="200"><path d="M205.312 938.2912h39.2192l-7.3216-378.624-39.2192 3.0208z" fill="#EF8F26" p-id="1496"></path><path d="M244.48 945.6128h-39.7312c-1.8432 0-3.328-1.4848-3.328-3.328v-9.6256c0-1.8432 1.4848-3.328 3.328-3.328h39.7312c1.8432 0 3.328 1.4848 3.328 3.328v9.6256c0 1.8432-1.4848 3.328-3.328 3.328z" fill="#16223F" p-id="1497"></path><path d="M822.4256 938.2912h-39.2192l7.3728-378.624 39.2192 3.0208z" fill="#EF8F26" p-id="1498"></path><path d="M783.3088 945.6128h39.7312c1.8432 0 3.328-1.4848 3.328-3.328v-9.6256c0-1.8432-1.4848-3.328-3.328-3.328h-39.7312c-1.8432 0-3.328 1.4848-3.328 3.328v9.6256c-0.0512 1.8432 1.4336 3.328 3.328 3.328z" fill="#16223F" p-id="1499"></path><path d="M275.4048 326.9632v90.6752s3.9424 90.5216-24.9856 112.2816h51.456s20.5824-8.6528 20.5824-74.0352V337.5616l-47.0528-10.5984z" fill="#EF8F26" p-id="1500"></path><path d="M284.2624 396.3392v48.5376s-1.3312 34.4576-5.0176 43.8784c-1.4848 4.9152-2.56 10.0352 5.0176 10.2912s28.2112 3.6864 28.416-23.04c0.256-26.7264 0-79.6672 0-79.6672s0.1024-11.264-14.6944-11.264c-14.848 0-13.7216 11.264-13.7216 11.264z" fill="#FAA235" p-id="1501"></path><path d="M312.6784 476.0064c0-1.6384 0.0512-3.3792 0.0512-5.1712-3.328-1.8944-8.3456-3.2256-15.7184-3.3792-6.7072-0.1536-11.3152 0.9728-14.4896 2.56-0.768 7.68-1.8432 15.104-3.2768 18.7904-1.4848 4.9152-2.56 10.0352 5.0176 10.2912 7.5776 0.2048 28.16 3.6352 28.416-23.0912z" fill="#FFB15C" p-id="1502"></path><path d="M758.2208 326.9632v90.6752s-3.9424 90.5216 24.9856 112.2816h-51.456s-20.5824-8.6528-20.5824-74.0352V337.5616l47.0528-10.5984z" fill="#EF8F26" p-id="1503"></path><path d="M749.3632 396.3392v48.5376s1.3312 34.4576 5.0176 43.8784c1.4848 4.9152 2.56 10.0352-5.0176 10.2912-7.5776 0.256-28.2112 3.6864-28.416-23.04-0.256-26.7264 0-79.6672 0-79.6672s-0.1024-11.264 14.6944-11.264c14.848 0 13.7216 11.264 13.7216 11.264z" fill="#FAA235" p-id="1504"></path><path d="M720.9472 476.0064c0-1.6384-0.0512-3.3792-0.0512-5.1712 3.328-1.8944 8.3456-3.2256 15.7184-3.3792 6.7072-0.1536 11.3152 0.9728 14.4896 2.56 0.768 7.68 1.8432 15.104 3.2768 18.7904 1.4848 4.9152 2.56 10.0352-5.0176 10.2912-7.5776 0.2048-28.16 3.6352-28.416-23.0912z" fill="#FFB15C" p-id="1505"></path><path d="M641.1264 50.9952H385.2288c-84.992 0-153.9072 27.9552-153.9072 112.9472v155.4944c0 67.328 229.7344 61.952 297.0624 61.952 0 0 266.7008 5.4272 266.7008-61.952V163.9424c-0.0512-84.992-68.9664-112.9472-153.9584-112.9472z" fill="#853CF7" p-id="1506"></path><path d="M631.9104 73.5232H394.4448c-78.8992 0-142.848 26.0608-142.848 105.2672v144.896c0 62.7712 213.1968 57.7024 275.712 57.7024 0 0 247.5008 5.0176 247.5008-57.7024v-144.896c0-79.2064-64-105.2672-142.8992-105.2672z" fill="#8B3BF2" p-id="1507"></path><path d="M631.9104 73.5232H394.4448c-77.8752 0-141.1584 25.3952-142.7968 102.2464 12.7488 34.9184 39.4752 64.256 93.3888 64.256h325.4784s66.7648 3.84 104.2432-33.024v-28.2112c0.0512-79.2064-63.9488-105.2672-142.848-105.2672z" fill="#8A47F4" p-id="1508"></path><path d="M757.248 118.8864c-24.2688-33.1264-71.2704-45.312-125.2864-45.312H394.4448c-51.3536 0-96.3584 11.0592-121.4976 40.6016 5.3248-4.7104 24.1664-14.4896 88.7808-14.4896h299.3664s60.4672-1.536 96.1536 19.2zM278.1696 184.32c-8.1408-23.3984-8.2944-50.688-7.2704-67.7376-12.2368 15.5648-19.3024 35.9424-19.3024 62.1568v144.896c0 18.3296 18.2272 30.8736 45.6192 39.4752C318.7712 308.736 288.5632 214.1696 278.1696 184.32z" fill="#9E63FC" p-id="1509"></path><path d="M774.8096 323.6352v-144.896c0-24.9856-6.4-44.6464-17.5616-59.904 0.8704 17.152 0.4096 43.0592-7.3728 65.4336-10.24 29.4912-39.8848 122.2144-19.7632 176.8448 26.4704-8.448 44.6976-20.4288 44.6976-37.4784z" fill="#9E63FC" p-id="1510"></path><path d="M528.384 381.3888s266.7008 5.4272 266.7008-61.952v-10.8032c-32.2048 30.976-69.2736 37.7856-99.9936 43.3152-38.2464 6.8608-229.4272 12.7488-351.9488 0-68.8128-7.168-98.7136-26.6752-111.7696-42.3936v9.8816c-0.0512 67.328 229.6832 61.952 297.0112 61.952z" fill="#7F1FE5" p-id="1511"></path><path d="M262.656 497.1008s275.1488 17.664 506.88 0c26.4704-2.9184 75.1616 16.9984 75.1616 69.2736s-19.6096 71.8848-75.1616 80.384c-55.552 8.4992-291.8912 40.704-518.9632 0.8192-31.1296-7.5264-66.3552-13.2608-66.3552-79.9232S248.8832 496.2816 262.656 497.1008z" fill="#853CF7" p-id="1512"></path><path d="M261.2224 507.8528s-35.7888-7.3728-54.8864 24.0128c-6.3488 15.2064-11.776 55.3984 81.8688 61.7472s317.3888 19.456 460.8512 0c42.1376-5.0688 91.8016-16.1792 72.192-67.1744-7.168-12.4416-15.6672-19.8144-53.6064-19.3536-37.888 0.4096-145.8176 14.1312-255.5904 14.1312s-250.8288-13.3632-250.8288-13.3632z" fill="#8A47F4" p-id="1513"></path><path d="M842.6496 591.9744c-36.4544 12.3904-135.1168 37.7856-330.9568 37.7856-194.0992 0-289.6896-24.9344-325.4272-37.4784 7.8336 43.6736 37.5808 48.8448 64.3584 55.296 227.072 39.8848 463.4112 7.68 518.9632-0.8192 45.312-6.9632 66.7136-21.2992 73.0624-54.784z" fill="#7F1FE5" p-id="1514"></path><path d="M213.504 600.576s345.6512 36.8128 599.8592 0c-62.464 18.0736-108.544 34.7648-309.504 34.7648-95.0784 0-235.5712-11.7248-290.3552-34.7648z" fill="#9E63FC" p-id="1515"></path><path d="M890.88 969.0112l-9.472-445.9008a15.22176 15.22176 0 0 0-15.2576-14.8992h-20.7872c-8.5504 0-15.4112 7.0144-15.2576 15.5648l9.7792 445.2352H890.88z" fill="#FAA235" p-id="1516"></path><path d="M841.0624 975.5136h50.0736c2.7648 0 5.0688-2.2528 5.0688-5.0688v-6.4512c0-2.7648-2.2528-5.0688-5.0688-5.0688h-50.0736c-2.7648 0-5.0688 2.2528-5.0688 5.0688v6.4512c0.0512 2.816 2.304 5.0688 5.0688 5.0688z" fill="#485A8C" p-id="1517"></path><path d="M875.52 525.824l1.3312 70.144a14.89408 14.89408 0 0 1-14.848 15.1552h-10.0864c-8.1408 0-14.7456-6.5024-14.848-14.6432l-1.0752-70.656s-0.1024-12.0832 8.3968-12.0832h21.5552s9.5744 0.4096 9.5744 12.0832z" fill="#FFB15C" p-id="1518"></path><path d="M136.8576 969.0112l9.472-445.9008a15.22176 15.22176 0 0 1 15.2576-14.8992h20.7872c8.5504 0 15.4112 7.0144 15.2576 15.5648l-9.7792 445.2352h-50.9952z" fill="#FAA235" p-id="1519"></path><path d="M186.6752 975.5136h-50.0736c-2.7648 0-5.0688-2.2528-5.0688-5.0688v-6.4512c0-2.7648 2.2528-5.0688 5.0688-5.0688h50.0736c2.7648 0 5.0688 2.2528 5.0688 5.0688v6.4512c0 2.816-2.304 5.0688-5.0688 5.0688z" fill="#485A8C" p-id="1520"></path><path d="M152.2176 525.824l-1.3312 70.144a14.89408 14.89408 0 0 0 14.848 15.1552h10.0864c8.1408 0 14.7456-6.5024 14.848-14.6432l1.0752-70.656s0.1024-12.0832-8.3968-12.0832H161.792s-9.5744 0.4096-9.5744 12.0832z" fill="#FFB15C" p-id="1521"></path><path d="M185.12384 687.80032l687.42656 195.7888-13.04064 45.78816-687.42656-195.7888z" fill="#FAA235" p-id="1522"></path><path d="M632.6272 815.3088l-84.1728 25.5488-55.8592-15.8208 78.8992-27.9552z" fill="#EF8F26" p-id="1523"></path><path d="M872.64768 733.6448L185.22112 929.42336l-13.04576-45.79328 687.42656-195.7888z" fill="#FAA235" p-id="1524"></path><path d="M193.9456 690.3296l-1.0752 49.2544 6.9632 1.9456v-49.3056zM189.8496 878.592l-1.1264 49.8176 8.9088-2.5088v-49.6128zM833.8944 695.1424l1.0752 49.2032-8.8064 2.5088 1.8432-50.0224zM837.8368 873.728l1.0752 49.8176-10.4448-2.9696 1.3312-49.152zM522.3424 783.872l-86.9376 24.7808-11.1104-3.1744 90.2144-23.8592z" fill="#EF8F26" p-id="1525"></path></svg>