<?xml version="1.0" standalone="no"?><!DOCTYPE svg PUBLIC "-//W3C//DTD SVG 1.1//EN" "http://www.w3.org/Graphics/SVG/1.1/DTD/svg11.dtd"><svg t="1664347902562" class="icon" viewBox="0 0 1024 1024" version="1.1" xmlns="http://www.w3.org/2000/svg" p-id="2205" xmlns:xlink="http://www.w3.org/1999/xlink" width="200" height="200"><path d="M266.0352 257.3824c-3.1232-8.6528-7.0144-19.4048-11.8784-32.768-1.6896-4.6592-6.656-7.2704-11.4176-5.888-64.6144 18.944-99.9424 45.312-113.5616 57.2928-3.84 3.3792-4.1984 9.2672-0.8704 13.1584l21.7088 25.1392c3.0208 3.4816 8.0896 4.2496 12.032 1.8432 27.2896-16.64 60.3136-32.6656 98.304-46.7968 4.9152-1.792 7.4752-7.1168 5.6832-11.9808z" fill="#F76439" p-id="2206"></path><path d="M76.3904 822.5792c-7.4752 0-11.9808-8.2944-7.8848-14.5408 43.8272-66.2528 240.9472-336.128 543.6928-336.128 102.6048 0 193.792 23.1424 247.552 113.5104 6.5024 10.9568 12.4928 22.8864 17.8176 35.84l49.664 120.2688 27.4944 68.1472a9.3696 9.3696 0 0 1-8.704 12.9024H76.3904z" fill="#419DF9" p-id="2207"></path><path d="M889.7024 650.5984c-3.6864-8.9088-7.68-18.6368-12.1344-29.3376-5.376-13.0048-11.3152-24.9344-17.8176-35.84-53.76-90.368-144.9472-113.5104-247.552-113.5104-302.7456 0-499.8656 269.8752-543.6928 336.128-4.1472 6.2464 0.3584 14.5408 7.8848 14.5408h1.8944c297.472-237.9776 681.3696-195.4304 811.4176-171.9808z" fill="#48ACFF" p-id="2208"></path><path d="M954.7264 809.6768l-27.4944-68.1472-49.664-120.2688c-5.376-13.0048-11.3152-24.9344-17.8176-35.84-40.1408-67.4816-101.2224-97.4848-172.288-108.3392 48.7936 26.3168 155.0336 109.0048 212.5312 345.4976h46.08c6.6048 0 11.1616-6.7584 8.6528-12.9024z" fill="#438CF7" p-id="2209"></path><path d="M76.3904 822.5792h869.632c6.656 0 11.2128-6.7584 8.704-12.9024l-15.2064-37.632c-1.4336-3.5328-4.864-5.888-8.704-5.888H103.0656c-2.9696 0-5.7344 1.3824-7.5264 3.7376a767.6928 767.6928 0 0 0-27.0336 38.144c-4.096 6.2464 0.4096 14.5408 7.8848 14.5408z" fill="#81CBFC" p-id="2210"></path><path d="M974.336 414.1568c-32.1536-49.8176-150.8352-196.864-407.1936-196.864-261.632 0-446.6176 101.5296-487.2192 173.0048-2.9184 5.1712-0.256 11.7248 5.376 13.5168 59.4944 18.944 133.5808 53.7088 113.2032 250.6752 95.2832-90.0096 236.3392-182.6304 413.696-182.6304 102.6048 0 193.792 23.1424 247.552 113.5104 0.768 1.3312 1.536 2.7136 2.304 4.0448l-0.5632-5.4784s-15.2064-95.3344 109.1072-156.416c5.0176-2.4064 6.7584-8.6528 3.7376-13.3632zM792.1152 472.064c-0.512-0.1024-1.0752-0.256-1.5872-0.4096-246.9376-88.4224-432.3328 21.0432-486.2464 59.0848-9.7792 6.8608-23.5008 4.1984-29.4912-6.144-47.5648-82.2272 70.2464-174.8992 272.8448-205.3632 217.7536-32.768 309.0432 70.656 306.432 106.5984-2.6112 35.584-34.6624 51.3536-61.952 46.2336z" fill="#F7D53A" p-id="2211"></path><path d="M751.9232 246.8864c-51.5072-17.8688-112.64-29.5424-184.7808-29.5424-261.632 0-446.6176 101.5296-487.2192 173.0048-2.9184 5.1712-0.256 11.7248 5.376 13.5168 11.8272 3.7888 24.2176 8.192 36.352 14.3872 3.328 1.6896 7.2192 1.4336 10.1376-0.8704 118.9376-92.3648 346.4704-225.536 620.1344-170.496z" fill="#F68F32" p-id="2212"></path><path d="M393.9328 325.8368c-72.8576 21.9136-162.56 84.992-129.6384 169.9328 0.2048-0.0512 0.4096-0.1024 0.6144-0.1024-9.1136-73.984 103.6288-149.504 282.7264-176.4352 159.488-23.9616 251.0848 25.0368 287.6416 67.1232 0 0-108.3392-152.3712-441.344-60.5184z" fill="#F2B53D" p-id="2213"></path><path d="M567.1424 217.344c-261.632 0-446.6176 101.5296-487.2192 173.0048-2.9184 5.1712-0.256 11.7248 5.376 13.5168 3.4304 1.0752 6.8608 2.2528 10.3424 3.4816 124.16-146.3296 422.3488-179.5584 533.0432-186.9312-19.6096-1.9456-40.0384-3.072-61.5424-3.072z" fill="#FFA766" p-id="2214"></path><path d="M254.208 224.6144c-1.6896-4.6592-6.656-7.2704-11.4176-5.888-64.6144 18.944-99.9424 45.312-113.5616 57.2928-3.84 3.3792-4.1984 9.2672-0.8704 13.1584l2.304 2.6624c12.3392-11.4688 50.5856-42.1376 125.0304-63.0784-0.512-1.3824-0.9728-2.7136-1.4848-4.1472z" fill="#F99178" p-id="2215"></path><path d="M632.6272 501.5552c-69.2224 0.0512-294.4 19.4048-501.4528 250.4192 56.2688-42.5472 237.9264-182.5792 527.0528-192.8704 21.504-0.768 31.0272-27.2384 15.0528-41.6768-0.2048-0.2048-0.4608-0.4096-0.6656-0.6144a60.1856 60.1856 0 0 0-39.9872-15.2576z" fill="#75C6FC" p-id="2216"></path><path d="M970.5984 427.5712c0.6656-0.3072 1.28-0.768 1.8432-1.2288-24.4224 1.3824-69.0176 10.24-100.9152 53.7088-23.552 32.1024-28.0064 61.1328-26.5216 83.456 5.1712 6.8096 10.1376 14.08 14.7456 21.8624 0.768 1.3312 1.536 2.7136 2.304 4.0448l-0.5632-5.4784c0 0.0512-15.2064-95.2832 109.1072-156.3648z" fill="#F2B53D" p-id="2217"></path></svg>