<?xml version="1.0" standalone="no"?><!DOCTYPE svg PUBLIC "-//W3C//DTD SVG 1.1//EN" "http://www.w3.org/Graphics/SVG/1.1/DTD/svg11.dtd"><svg t="1664347907111" class="icon" viewBox="0 0 1024 1024" version="1.1" xmlns="http://www.w3.org/2000/svg" p-id="2375" xmlns:xlink="http://www.w3.org/1999/xlink" width="200" height="200"><path d="M514.8672 846.7968c14.5408 0 28.7744 0.3072 42.5984 0.9216v-64.6144c-13.9776 1.6384-28.16 2.6112-42.5984 2.6112s-28.6208-0.9728-42.5984-2.6112v64.6144c13.8752-0.6144 28.0576-0.9216 42.5984-0.9216z" fill="#5F5CE5" p-id="2376"></path><path d="M477.4912 789.504v70.0416h65.1776v-65.5872c-38.0928 0.6144-56.4224-1.7408-65.1776-4.4544z" fill="#6F6FEF" p-id="2377"></path><path d="M487.0144 791.6032v67.9936H512v-65.8432c-10.8544-0.4608-18.944-1.2288-24.9856-2.1504z" fill="#7A7AF4" p-id="2378"></path><path d="M514.8672 429.0048m-356.7104 0a356.7104 356.7104 0 1 0 713.4208 0 356.7104 356.7104 0 1 0-713.4208 0Z" fill="#A482F9" p-id="2379"></path><path d="M158.1568 429.2608a342.2208 334.4896 90 1 0 668.9792 0 342.2208 334.4896 90 1 0-668.9792 0Z" fill="#C0A9FF" p-id="2380"></path><path d="M713.4208 400.2304l29.3376-64.4608s45.2096 62.9248 8.6016 181.3504c-16.9984 47.8208-48.384 122.9824-120.9344 109.2608-15.6672-5.888-32.0512-22.8864-32.0512-72.5504s115.0464-153.6 115.0464-153.6zM573.0816 225.7408l25.7024-20.0704s53.4016 28.3648 34.2528 71.3728c-10.0864 22.6304-36.9152 21.248-62.4128 44.7488S547.84 373.248 547.84 373.248s-23.5008 30.4128-32.9728 20.5824c-9.472-9.7792-13.8752-59.8016-13.8752-59.8016l72.0896-108.288zM586.2912 452.6592v44.1344s-13.4144 15.4112-26.0608 20.3264c1.536 27.6992 7.936 83.0976-24.4224 131.6352-13.2608 16.6912-45.568 62.2592-90.2144 38.2464-44.5952-24.0128-124.2624-79.872-159.6928-193.8944 100.352 45.312 259.6864-49.2544 259.6864-49.2544l40.704 8.8064z" fill="#A482F9" p-id="2381"></path><path d="M356.9152 429.2608s46.08 20.4288 89.5488 0.6144c17.664 32.4608 16.3328 34.0992 16.3328 34.0992l-82.3808-3.0208s-15.6672 2.2528-23.5008-31.6928z" fill="#A482F9" p-id="2382"></path><path d="M517.0688 508.6208c-39.0144 0-71.424-28.1088-78.2336-65.1264-32.1536 8.704-55.6544 1.1264-65.1264-5.2736-12.7488-8.5504-27.7504-13.4656-42.752-18.3808-47.2064-7.424-51.5584 49.9712-46.08 69.7344 33.4848 118.4768 143.5648 172.032 174.1824 179.2512 30.6176 7.2192 64.8704-23.808 76.8512-55.1424 13.2096-33.536 13.2096-77.6192 10.496-110.7456-9.0624 3.6352-18.944 5.6832-29.3376 5.6832zM749.2608 347.8528c-9.9328-29.8496-54.3744-42.6496-87.3472-36.352-36.352 6.5536-74.8544 30.7712-101.6832 50.7392 21.9136 14.1824 36.4544 38.7584 36.4544 66.816 0 22.8352-9.6768 43.3664-25.0368 57.856 21.4016 21.7088 26.7776 43.9296 26.368 54.784-0.5632 15.36 3.1232 30.72 6.8096 46.0288 18.4832 44.032 69.632 17.5616 83.5584 2.5088 83.1488-90.7776 70.8096-212.5824 60.8768-242.3808zM577.3824 194.1504c-118.3744-33.792-221.7984 31.6928-244.0704 53.9136s-13.824 67.6864 6.5024 94.3616c24.1664 32.3584 68.352 57.5488 98.9696 72.2432 6.7584-37.12 39.168-65.2288 78.2336-65.2288 6.1952 0 12.1856 0.768 17.9712 2.0992 9.2672-33.3824 28.672-50.0224 39.3216-54.8864 13.9776-6.3488 26.0608-16.5376 38.144-26.6752 31.1808-36.2496-15.36-70.144-35.072-75.8272z" fill="#E0F2FC" p-id="2383"></path><path d="M564.0704 359.3728s47.4112 18.6368 47.0528 72.8576c-0.3072 21.9136-7.1168 46.9504-28.16 68.096-3.072-3.6352-12.1856-14.2336-12.6464-14.5408-0.512-9.5232-28.1088-118.6304-28.1088-118.6304l16.3328-4.2496 5.5296-3.5328z" fill="#CCE7F2" p-id="2384"></path><path d="M280.32 902.7072a234.5472 55.9104 0 1 0 469.0944 0 234.5472 55.9104 0 1 0-469.0944 0Z" fill="#FFB83B" p-id="2385"></path><path d="M747.1104 896.8704c0 24.3712-103.2704 38.1952-232.192 38.1952s-231.8336-12.3904-231.8336-36.7616c0-25.2416 95.8976-51.5072 231.8336-51.5072 128.9216 0 232.192 25.7024 232.192 50.0736z" fill="#FFDC4A" p-id="2386"></path><path d="M590.6432 867.6352c0.1536 7.5776-45.824 13.0048-103.3728 14.336-57.5488 1.3312-103.5776-1.4336-103.7312-9.0112-0.2048-7.8848 42.4448-17.0496 103.1168-18.4832 57.5488-1.3312 103.8336 5.5808 103.9872 13.1584z" fill="#FFEA92" p-id="2387"></path><path d="M749.2608 347.8528c-6.0416-18.0736-24.7296-29.8496-45.824-34.9696 12.032 10.8544 33.9968 38.5536 32.5632 95.8976-1.6384 29.0816-6.8608 92.16-65.6896 170.5984-11.1104 13.4144-39.7824 17.3056-47.36 3.9424-7.5776-13.4144-9.8304-34.304-13.4656-45.7728-3.5328-11.264-6.7584-23.8592-28.928-40.3456 13.9776 18.176 17.7664 35.3792 17.4592 44.544-0.5632 15.36 3.1232 30.72 6.8096 46.0288 18.4832 44.032 69.632 17.5616 83.5584 2.5088 83.1488-90.8288 70.8096-212.6336 60.8768-242.432zM546.4064 502.9888l-29.3376-15.8208-76.1856-38.5536s0.3072 69.888 92.6208 72.192c-3.2256 27.8016-12.1344 73.7792-36.9152 100.5056-8.3456 7.8336-41.1648 38.7072-99.0208-3.4304-44.1344-27.9552-94.1056-78.1824-109.312-117.504h-0.0512c36.9152 110.9504 141.1584 161.4848 170.8544 168.448 30.6176 7.2192 64.8704-23.808 76.8512-55.1424 13.2096-33.4848 13.2096-77.6192 10.496-110.6944z" fill="#CCE7F2" p-id="2388"></path><path d="M517.0688 429.0048m-79.616 0a79.616 79.616 0 1 0 159.232 0 79.616 79.616 0 1 0-159.232 0Z" fill="#9368FE" p-id="2389"></path><path d="M511.8976 423.8336m-74.4448 0a74.4448 74.4448 0 1 0 148.8896 0 74.4448 74.4448 0 1 0-148.8896 0Z" fill="#9575FC" p-id="2390"></path><path d="M570.624 120.832S407.9616 95.744 299.0592 189.44C227.4816 250.2144 199.9872 330.0864 198.0416 414.6688c43.1616-95.7952 98.048-273.2544 372.5824-293.8368z" fill="#D7CCFF" p-id="2391"></path><path d="M612.5056 269.9776c31.1296-36.2496-15.4112-70.144-35.1232-75.8272a246.52288 246.52288 0 0 0-59.4944-9.3184c6.9632 1.792 57.7024 15.8208 64.9728 48.2304 2.4576 10.8032 11.1104 29.9008-22.6304 44.5952-30.0032 13.056-44.6464 44.8512-45.6192 71.8336 0.8192 0 1.5872-0.1024 2.4064-0.1024 6.1952 0 12.1856 0.768 17.9712 2.0992 9.2672-33.3824 28.672-50.0224 39.3216-54.8864 14.0288-6.2976 26.112-16.4352 38.1952-26.624z" fill="#CCE7F2" p-id="2392"></path><path d="M511.8976 349.44c-41.1136 0-74.4448 33.3312-74.4448 74.4448 0 16.0768 5.1712 30.9248 13.824 43.1104-7.4752-28.416-6.8608-54.9888 14.1824-83.6096 18.4832-25.1392 55.6032-30.6176 64.4608-31.5904-5.7856-1.536-11.8272-2.3552-18.0224-2.3552z" fill="#A38DFF" p-id="2393"></path></svg>